<svg id="visual" viewBox="0 0 960 540" width="960" height="540" xmlns="http://www.w3.org/2000/svg" xmlns:xlink="http://www.w3.org/1999/xlink" version="1.1"><rect x="0" y="0" width="960" height="540" fill="#f9f9f9"></rect><defs><linearGradient id="grad1_0" x1="43.8%" y1="100%" x2="100%" y2="0%"><stop offset="14.444444444444446%" stop-color="#f9f9f9" stop-opacity="1"></stop><stop offset="85.55555555555554%" stop-color="#f9f9f9" stop-opacity="1"></stop></linearGradient></defs><defs><linearGradient id="grad2_0" x1="0%" y1="100%" x2="56.3%" y2="0%"><stop offset="14.444444444444446%" stop-color="#f9f9f9" stop-opacity="1"></stop><stop offset="85.55555555555554%" stop-color="#f9f9f9" stop-opacity="1"></stop></linearGradient></defs><g transform="translate(960, 540)"><path d="M-486 0C-451.6 -39.5 -417.1 -79 -410.9 -133.5C-404.6 -188 -426.5 -257.4 -393.2 -285.7C-359.8 -314 -271.3 -301.1 -215.7 -296.9C-160.2 -292.7 -137.7 -297.1 -107.2 -330C-76.8 -363 -38.4 -424.5 0 -486L0 0Z" fill="#000"></path></g><g transform="translate(0, 0)"><path d="M486 0C496.7 63.2 507.5 126.4 456.5 148.3C405.5 170.3 292.9 150.9 263.7 191.6C234.6 232.3 288.9 333 282.1 388.3C275.3 443.6 207.4 453.5 150.2 462.2C93 470.9 46.5 478.5 0 486L0 0Z" fill="#000"></path></g></svg>