<svg width="410" height="494" viewBox="0 0 410 494" fill="none" xmlns="http://www.w3.org/2000/svg">
<g filter="url(#filter0_i_2_3)">
<path d="M410 493.035V49.1879C410 49.1879 410 0.195183 365.327 0.195156L219.202 0.195157L57.1832 0.195163C57.1832 0.195163 2.1952e-05 -6.33108 6.79655e-06 56.0953L6.56415e-06 282.086C6.56415e-06 282.086 0 348.937 57.1832 348.937H229.012C304.497 348.937 322.376 363.422 322.376 363.422C322.376 363.422 410 408.141 410 493.035Z" fill="url(#paint0_linear_2_3)" style="mix-blend-mode:screen"/>
</g>
<path d="M407.5 458.264V49.1879L407.5 49.1705L407.5 49.1396L407.499 49.0841C407.498 49.0323 407.497 48.9619 407.495 48.8736C407.493 48.8256 407.492 48.7722 407.49 48.7136C407.48 48.3817 407.46 47.8843 407.418 47.2452C407.335 45.9662 407.167 44.1244 406.83 41.9084C406.155 37.4638 404.809 31.5796 402.141 25.7286C399.475 19.8817 395.526 14.1441 389.678 9.86841C383.857 5.61284 376.008 2.69516 365.327 2.69516L219.202 2.69516L57.1832 2.69516C57.0894 2.69516 56.9955 2.68987 56.9022 2.67932C56.9021 2.6793 56.9019 2.67928 56.9017 2.67926L56.8999 2.67906L56.8998 2.67904L56.8796 2.67688C56.8593 2.67474 56.8256 2.67128 56.779 2.66678C56.6857 2.65778 56.5407 2.64463 56.3473 2.62959C55.9604 2.59952 55.3807 2.56196 54.6358 2.53503C53.145 2.48114 50.999 2.47005 48.4175 2.64512C43.24 2.99626 36.3915 4.09103 29.5825 7.03058C22.7944 9.96115 16.0689 14.7125 11.0248 22.3967C5.98054 30.0812 2.50001 40.8783 2.50001 56.0953L407.5 458.264ZM407.5 458.264C399.665 431.625 383.751 410.339 367.951 394.621C356.858 383.586 345.773 375.245 337.461 369.66C333.303 366.867 329.832 364.759 327.394 363.346C326.175 362.639 325.213 362.106 324.552 361.747C324.221 361.568 323.966 361.432 323.791 361.34C323.763 361.325 323.737 361.312 323.713 361.299L407.5 458.264Z" stroke="white" stroke-width="5" stroke-linejoin="round"/>
<defs>
<filter id="filter0_i_2_3" x="0" y="0" width="410" height="497.035" filterUnits="userSpaceOnUse" color-interpolation-filters="sRGB">
<feFlood flood-opacity="0" result="BackgroundImageFix"/>
<feBlend mode="normal" in="SourceGraphic" in2="BackgroundImageFix" result="shape"/>
<feColorMatrix in="SourceAlpha" type="matrix" values="0 0 0 0 0 0 0 0 0 0 0 0 0 0 0 0 0 0 127 0" result="hardAlpha"/>
<feOffset dy="4"/>
<feGaussianBlur stdDeviation="2"/>
<feComposite in2="hardAlpha" operator="arithmetic" k2="-1" k3="1"/>
<feColorMatrix type="matrix" values="0 0 0 0 0 0 0 0 0 0 0 0 0 0 0 0 0 0 0.25 0"/>
<feBlend mode="screen" in2="shape" result="effect1_innerShadow_2_3"/>
</filter>
<linearGradient id="paint0_linear_2_3" x1="12.4878" y1="19.1363" x2="442.792" y2="373.36" gradientUnits="userSpaceOnUse">
<stop offset="0.255208" stop-color="white" stop-opacity="0.8"/>
<stop offset="0.614583" stop-color="white" stop-opacity="0.525874"/>
<stop offset="1" stop-color="white" stop-opacity="0"/>
</linearGradient>
</defs>
</svg>
