<svg width="410" height="474" viewBox="0 0 410 474" fill="none" xmlns="http://www.w3.org/2000/svg">
<g filter="url(#filter0_i_7_21)">
<path d="M362.836 0H58.6829C-1.85062 0 0.00620386 47.8842 0.00620386 47.8842L0.00620392 310C0.00620392 380.713 80.5 394.766 80.5 394.766H167H263.68C337.211 394.766 395 422.5 402.5 460.5C410 498.5 410 443.5 410 443.5V47.8842C410 47.8842 410 0 362.836 0Z" fill="url(#paint0_linear_7_21)"/>
</g>
<path d="M3.5062 47.8842V47.8164L3.5039 47.7572C3.5039 47.7573 3.50383 47.7554 3.50382 47.7551C3.5038 47.7546 3.50375 47.7534 3.50372 47.7524C3.50368 47.751 3.50371 47.7512 3.50364 47.7489C3.50332 47.7378 3.50274 47.7155 3.50213 47.6825C3.50092 47.6164 3.49961 47.5074 3.50011 47.3582C3.50111 47.0598 3.50936 46.6016 3.54001 46.0068C3.60138 44.8156 3.75211 43.0847 4.11131 40.9953C4.83186 36.804 6.37716 31.252 9.65456 25.728C16.0628 14.9271 29.5213 3.5 58.6829 3.5H362.836C374.003 3.5 382.147 6.32376 388.141 10.3804C394.159 14.4536 398.219 19.9139 400.965 25.4884C403.716 31.0755 405.109 36.7057 405.809 40.9693C406.158 43.0927 406.331 44.8546 406.417 46.0723C406.459 46.6806 406.48 47.1512 406.49 47.4613C406.495 47.6163 406.498 47.7309 406.499 47.8024L406.5 47.849L406.5 47.8769L406.5 47.8842V47.889V443.5H407.354C406.5 443.5 406.5 443.5 406.5 443.5V443.502V443.508L406.5 443.536L406.5 443.649C406.5 443.72 406.499 443.815 406.499 443.934L406.498 444.092C406.497 444.276 406.496 444.499 406.494 444.759C406.492 445.047 406.489 445.381 406.486 445.753C406.471 447.169 406.442 449.151 406.384 451.41C406.314 454.153 406.201 457.272 406.023 460.272C405.993 460.124 405.964 459.974 405.934 459.822C401.875 439.26 384.392 422.125 359.354 410.222C334.213 398.27 300.848 391.266 263.68 391.266H167H80.8224C80.6908 391.241 80.5143 391.206 80.2952 391.162C79.7398 391.049 78.9116 390.871 77.8495 390.619C75.7245 390.115 72.6685 389.313 68.9926 388.133C61.6285 385.769 51.8415 381.907 42.0841 375.918C22.6062 363.961 3.5062 343.742 3.5062 310V47.8842Z" stroke="white" stroke-width="7"/>
<defs>
<filter id="filter0_i_7_21" x="0" y="0" width="410" height="475.883" filterUnits="userSpaceOnUse" color-interpolation-filters="sRGB">
<feFlood flood-opacity="0" result="BackgroundImageFix"/>
<feBlend mode="normal" in="SourceGraphic" in2="BackgroundImageFix" result="shape"/>
<feColorMatrix in="SourceAlpha" type="matrix" values="0 0 0 0 0 0 0 0 0 0 0 0 0 0 0 0 0 0 127 0" result="hardAlpha"/>
<feOffset dy="2"/>
<feGaussianBlur stdDeviation="18"/>
<feComposite in2="hardAlpha" operator="arithmetic" k2="-1" k3="1"/>
<feColorMatrix type="matrix" values="0 0 0 0 0 0 0 0 0 0 0 0 0 0 0 0 0 0 0.15 0"/>
<feBlend mode="normal" in2="shape" result="effect1_innerShadow_7_21"/>
</filter>
<linearGradient id="paint0_linear_7_21" x1="15.2324" y1="20.0446" x2="502.246" y2="253.812" gradientUnits="userSpaceOnUse">
<stop stop-color="white"/>
<stop offset="1" stop-color="white" stop-opacity="0"/>
</linearGradient>
</defs>
</svg>
